<?xml version="1.0" encoding="utf-8"?>
<!-- Generator: Adobe Illustrator 16.0.0, SVG Export Plug-In . SVG Version: 6.00 Build 0)  -->
<!DOCTYPE svg PUBLIC "-//W3C//DTD SVG 1.1//EN" "http://www.w3.org/Graphics/SVG/1.1/DTD/svg11.dtd">
<svg version="1.1" id="Layer_1" xmlns="http://www.w3.org/2000/svg" xmlns:xlink="http://www.w3.org/1999/xlink" x="0px" y="0px"
	 width="60px" height="30px" viewBox="0 0 60 30" enable-background="new 0 0 60 30" xml:space="preserve">
<path fill-rule="evenodd" clip-rule="evenodd" fill="#596B77" d="M25,0c3.333,0,6.667,0,10,0c0,1.667,0,3.333,0,5
	c1.666,0,3.334,0,5,0c0,1.667,0,3.333,0,5c1.666,0,3.334,0,5,0c0,1.667,0,3.333,0,5c1.666,0,3.334,0,5,0c0,1.666,0,3.334,0,5
	c1.666,0,3.334,0,5,0c0,1.666,0,3.334,0,5c1.666,0,3.334,0,5,0c0,1.666,0,3.334,0,5c-5,0-10,0-15,0c0-1.666,0-3.334,0-5
	c-1.666,0-3.334,0-5,0c0-1.666,0-3.334,0-5c-1.666,0-3.334,0-5,0c0-1.666,0-3.334,0-5c-3.333,0-6.667,0-10,0c0,1.666,0,3.334,0,5
	c-1.667,0-3.333,0-5,0c0,1.666,0,3.334,0,5c-1.667,0-3.333,0-5,0c0,1.666,0,3.334,0,5c-5,0-10,0-15,0c0-1.666,0-3.334,0-5
	c1.667,0,3.333,0,5,0c0-1.666,0-3.334,0-5c1.667,0,3.333,0,5,0c0-1.666,0-3.334,0-5c1.667,0,3.333,0,5,0c0-1.667,0-3.333,0-5
	c1.667,0,3.333,0,5,0c0-1.667,0-3.333,0-5c1.667,0,3.333,0,5,0C25,3.333,25,1.667,25,0z"/>
</svg>
