<?xml version="1.0" encoding="utf-8"?>
<!-- Generator: Adobe Illustrator 16.0.0, SVG Export Plug-In . SVG Version: 6.00 Build 0)  -->
<!DOCTYPE svg PUBLIC "-//W3C//DTD SVG 1.1//EN" "http://www.w3.org/Graphics/SVG/1.1/DTD/svg11.dtd">
<svg version="1.1" id="Layer_1" xmlns="http://www.w3.org/2000/svg" xmlns:xlink="http://www.w3.org/1999/xlink" x="0px" y="0px"
	 width="106.225px" height="100px" viewBox="0 0 106.225 100" enable-background="new 0 0 106.225 100" xml:space="preserve">
<path fill-rule="evenodd" clip-rule="evenodd" d="M106.106,0c0.142,0.143,0.124,0.5,0.106,0.797
	C99.398,8.55,92.581,16.305,85.767,24.058c-2.371,2.708-4.743,5.417-7.116,8.125C71.85,40.77,64.672,49.13,58.258,58.099
	c-3.168,4.443-6.337,8.887-9.506,13.33c-4.028,5.729-7.512,11.868-11.524,17.578c-1.876,2.566-3.753,5.134-5.629,7.701
	c-0.921,1.096-1.841,2.194-2.762,3.292c-1.38,0-2.762,0-4.143,0c-1.08-1.452-2.16-2.903-3.239-4.354
	c-2-3.222-4.001-6.444-6.001-9.666c-2.991-5.486-5.983-10.976-8.975-16.463c-1.452-2.673-2.904-5.347-4.355-8.019
	C1.538,60.494,0.204,58.666,0,57.515c1.585-1.186,2.605-2.999,4.354-4.036c3.871-2.294,9.787-2.131,16.039-2.124
	c2.354,7.451,4.708,14.906,7.063,22.357c4.496-4.92,8.993-9.843,13.489-14.764c5.947-6.496,11.896-12.994,17.844-19.49
	c1.646-1.734,3.292-3.47,4.938-5.205c1.682-1.682,3.364-3.363,5.046-5.045c2.052-2.052,4.003-4.333,6.267-6.16
	c1.557-1.505,3.115-3.01,4.673-4.514c4.607-3.722,8.688-8.015,13.596-11.471c2.807-1.978,6.181-3.402,9.187-5.151
	C103.7,1.274,104.903,0.638,106.106,0z"/>
</svg>
