<?xml version="1.0" encoding="utf-8"?>
<!-- Generator: Adobe Illustrator 16.0.0, SVG Export Plug-In . SVG Version: 6.00 Build 0)  -->
<!DOCTYPE svg PUBLIC "-//W3C//DTD SVG 1.1//EN" "http://www.w3.org/Graphics/SVG/1.1/DTD/svg11.dtd">
<svg version="1.1" id="Layer_3" xmlns="http://www.w3.org/2000/svg" xmlns:xlink="http://www.w3.org/1999/xlink" x="0px" y="0px"
	 width="480px" height="480px" viewBox="0 0 480 480" enable-background="new 0 0 480 480" xml:space="preserve">
<g>
	<path fill-rule="evenodd" clip-rule="evenodd" fill="#F9C1CF" d="M10,0c153.318,0,306.682,0,460,0c0,3.333,0,6.667,0,10
		c3.333,0,6.667,0,10,0c0,153.318,0,306.682,0,460c-3.333,0-6.667,0-10,0c0,3.333,0,6.667,0,10c-153.318,0-306.682,0-460,0
		c0-3.333,0-6.667,0-10c-3.333,0-6.667,0-10,0C0,316.682,0,163.318,0,10c3.333,0,6.667,0,10,0C10,6.667,10,3.333,10,0z"/>
	<path fill-rule="evenodd" clip-rule="evenodd" fill="#884051" d="M200,40c26.664,0,53.336,0,80,0c0,3.333,0,6.667,0,10
		c9.999,0,20.001,0,30,0c0,3.333,0,6.667,0,10c9.999,0,20.001,0,30,0c0,3.333,0,6.667,0,10c3.333,0,6.667,0,10,0
		c0,3.333,0,6.667,0,10c6.666,0,13.334,0,20,0c0,3.333,0,6.667,0,10c3.333,0,6.667,0,10,0c0,3.333,0,6.667,0,10
		c3.333,0,6.667,0,10,0c0,3.333,0,6.667,0,10c3.333,0,6.667,0,10,0c0,6.666,0,13.334,0,20c3.333,0,6.667,0,10,0
		c0,3.333,0,6.667,0,10c3.333,0,6.667,0,10,0c0,9.999,0,20.001,0,30c3.333,0,6.667,0,10,0c0,9.999,0,20.001,0,30
		c3.333,0,6.667,0,10,0c0,26.664,0,53.336,0,80c-3.333,0-6.667,0-10,0c0,9.999,0,20.001,0,30c-3.333,0-6.667,0-10,0
		c0,9.999,0,20.001,0,30c-3.333,0-6.667,0-10,0c0,3.333,0,6.667,0,10c-3.333,0-6.667,0-10,0c0,6.666,0,13.334,0,20
		c-3.333,0-6.667,0-10,0c0,3.333,0,6.667,0,10c-3.333,0-6.667,0-10,0c0,3.333,0,6.667,0,10c-3.333,0-6.667,0-10,0
		c0,3.333,0,6.667,0,10c-6.666,0-13.334,0-20,0c0,3.333,0,6.667,0,10c-3.333,0-6.667,0-10,0c0,3.333,0,6.667,0,10
		c-9.999,0-20.001,0-30,0c0,3.333,0,6.667,0,10c-9.999,0-20.001,0-30,0c0,3.333,0,6.667,0,10c-26.664,0-53.336,0-80,0
		c0-3.333,0-6.667,0-10c-9.999,0-20.001,0-30,0c0-3.333,0-6.667,0-10c-9.999,0-20.001,0-30,0c0-3.333,0-6.667,0-10
		c-3.333,0-6.667,0-10,0c0-3.333,0-6.667,0-10c-6.666,0-13.334,0-20,0c0-3.333,0-6.667,0-10c-3.333,0-6.667,0-10,0
		c0-3.333,0-6.667,0-10c-3.333,0-6.667,0-10,0c0-3.333,0-6.667,0-10c-3.333,0-6.667,0-10,0c0-6.666,0-13.334,0-20
		c-3.333,0-6.667,0-10,0c0-3.333,0-6.667,0-10c-3.333,0-6.667,0-10,0c0-9.999,0-20.001,0-30c-3.333,0-6.667,0-10,0
		c0-9.999,0-20.001,0-30c-3.333,0-6.667,0-10,0c0-26.664,0-53.336,0-80c3.333,0,6.667,0,10,0c0-9.999,0-20.001,0-30
		c3.333,0,6.667,0,10,0c0-9.999,0-20.001,0-30c3.333,0,6.667,0,10,0c0-3.333,0-6.667,0-10c3.333,0,6.667,0,10,0
		c0-6.666,0-13.334,0-20c3.333,0,6.667,0,10,0c0-3.333,0-6.667,0-10c3.333,0,6.667,0,10,0c0-3.333,0-6.667,0-10
		c3.333,0,6.667,0,10,0c0-3.333,0-6.667,0-10c6.666,0,13.334,0,20,0c0-3.333,0-6.667,0-10c3.333,0,6.667,0,10,0
		c0-3.333,0-6.667,0-10c9.999,0,20.001,0,30,0c0-3.333,0-6.667,0-10c9.999,0,20.001,0,30,0C200,46.667,200,43.333,200,40z"/>
	<path fill-rule="evenodd" clip-rule="evenodd" fill="#F9C1CF" d="M322.127,122.383c13.332,0,26.668,0,40,0c0,13.332,0,26.668,0,40
		c-6.666,0-13.334,0-20,0c0,6.666,0,13.334,0,20c-6.666,0-13.334,0-20,0c0,6.666,0,13.334,0,20c-6.666,0-13.334,0-20,0
		c0,6.666,0,13.334,0,20c-6.666,0-13.334,0-20,0c0,6.666,0,13.334,0,20c-6.666,0-13.334,0-20,0c0,6.666,0,13.334,0,20
		c-13.332,0-26.668,0-40,0c0-13.332,0-26.667,0-40c6.666,0,13.334,0,20,0c0-6.666,0-13.334,0-20c6.666,0,13.334,0,20,0
		c0-6.666,0-13.334,0-20c6.666,0,13.334,0,20,0c0-6.666,0-13.334,0-20c6.666,0,13.334,0,20,0c0-6.666,0-13.334,0-20
		c6.666,0,13.334,0,20,0C322.127,135.717,322.127,129.049,322.127,122.383z"/>
</g>
</svg>
