<?xml version="1.0" encoding="utf-8"?>
<!-- Generator: Adobe Illustrator 16.0.0, SVG Export Plug-In . SVG Version: 6.00 Build 0)  -->
<!DOCTYPE svg PUBLIC "-//W3C//DTD SVG 1.1//EN" "http://www.w3.org/Graphics/SVG/1.1/DTD/svg11.dtd">
<svg version="1.1" id="Layer_1" xmlns="http://www.w3.org/2000/svg" xmlns:xlink="http://www.w3.org/1999/xlink" x="0px" y="0px"
	 width="783.903px" height="99.987px" viewBox="0 0 783.903 99.987" enable-background="new 0 0 783.903 99.987"
	 xml:space="preserve">
<g>
	<g>
		<path fill-rule="evenodd" clip-rule="evenodd" fill="#A9BFCC" d="M775.903,21.997v-5.999h-7.998V7.999h-8V0H21.997v7.999h-5.999
			v7.999H7.999v5.999H0V75.99h7.999v7.999h7.999v7.999h5.999v7.999h737.908v-7.999h8v-7.999h7.998V75.99h8V21.997H775.903z
			 M775.903,69.991h-7.998v5.999h-8v7.999h-6v7.999H29.996v-7.999h-7.999V75.99h-5.999v-5.999H7.999V29.996h7.999v-7.999h5.999
			v-5.999h7.999V7.999h723.909v7.999h6v5.999h8v7.999h7.998V69.991z"/>
	</g>
</g>
<g>
	<g>
		<path fill-rule="evenodd" clip-rule="evenodd" fill="#576B77" d="M753.905,7.999H29.996v7.999h723.909V7.999z M29.996,15.998
			h-7.999v5.999h7.999V15.998z M759.905,21.997v-5.999h-6v5.999H759.905z M21.997,21.997h-5.999v7.999h5.999V21.997z
			 M767.905,29.996v-7.999h-8v7.999H767.905z M7.999,29.996v39.995h7.999V29.996H7.999z M767.905,29.996v39.995h7.998V29.996
			H767.905z M15.998,69.991v5.999h5.999v-5.999H15.998z M759.905,75.99h8v-5.999h-8V75.99z M21.997,75.99v7.999h7.999V75.99H21.997z
			 M753.905,83.989h6V75.99h-6V83.989z M29.996,91.988h723.909v-7.999H29.996V91.988z"/>
	</g>
</g>
<path fill-rule="evenodd" clip-rule="evenodd" fill="#4BC4CE" d="M29.342,15.997c2.666,0,5.333,0,7.999,0
	c0,22.772,0,45.552,0,68.324c-2.666,0-5.333,0-7.999,0c0-2.68,0-5.359,0-8.038c-2.666,0-5.333,0-7.999,0c0-2.009,0-4.02,0-6.028
	c-2,0-4,0-5.999,0c0-13.396,0-26.796,0-40.191c2,0,4,0,5.999,0c0-2.679,0-5.359,0-8.038c2.666,0,5.333,0,7.999,0
	C29.342,20.016,29.342,18.006,29.342,15.997z"/>
</svg>
